<svg width="60" height="61" viewBox="0 0 70 71" fill="none" xmlns="http://www.w3.org/2000/svg"><path d="M24.832 70.533a11.71 11.71 0 0011.727-11.728V47.078H24.832a11.71 11.71 0 00-11.728 11.727 11.71 11.71 0 0011.728 11.728z" fill="#0ACF83"/><path d="M13.104 35.35a11.71 11.71 0 0111.728-11.727h11.727v23.455H24.832a11.71 11.71 0 01-11.728-11.727z" fill="#A259FF"/><path d="M13.104 11.896A11.71 11.71 0 0124.832.17h11.727v23.454H24.832a11.71 11.71 0 01-11.728-11.727z" fill="#F24E1E"/><path d="M36.559.169h11.727a11.71 11.71 0 0111.727 11.727 11.71 11.71 0 01-11.727 11.727H36.56V.17z" fill="#FF7262"/><path d="M60.014 35.35a11.71 11.71 0 01-11.728 11.728A11.71 11.71 0 0136.56 35.351a11.71 11.71 0 0111.727-11.727A11.71 11.71 0 0160.013 35.35z" fill="#1ABCFE"/></svg>