<svg width="40" height="40" viewBox="0 0 60 61" fill="none" xmlns="http://www.w3.org/2000/svg"><path d="M58.474 27.488L32.705 1.72a3.802 3.802 0 00-5.375 0l-5.35 5.352 6.787 6.787a4.513 4.513 0 015.716 5.754l6.542 6.543a4.52 4.52 0 013.205 8.45 4.523 4.523 0 01-5.914-5.901l-6.1-6.1-.001 16.055a4.54 4.54 0 011.196.855 4.524 4.524 0 01-6.395 6.397 4.524 4.524 0 011.48-7.384V22.324a4.522 4.522 0 01-2.455-5.932l-6.69-6.691L1.68 27.369a3.802 3.802 0 000 5.376l25.77 25.768a3.803 3.803 0 005.376 0l25.647-25.648a3.803 3.803 0 000-5.377z" fill="#fff"/></svg>