<svg width="40" height="40" viewBox="0 0 70 70" fill="none" xmlns="http://www.w3.org/2000/svg"><path fill-rule="evenodd" clip-rule="evenodd" d="M34.962.994C22.148.994 11.756 11.383 11.756 24.2c0 10.253 6.649 18.952 15.87 22.02 1.16.215 1.585-.503 1.585-1.117 0-.553-.021-2.38-.031-4.32-6.457 1.404-7.819-2.738-7.819-2.738-1.055-2.682-2.577-3.396-2.577-3.396-2.105-1.44.159-1.41.159-1.41 2.33.163 3.557 2.392 3.557 2.392 2.07 3.547 5.43 2.521 6.753 1.928.21-1.5.81-2.524 1.474-3.103-5.154-.587-10.573-2.577-10.573-11.469 0-2.534.907-4.604 2.391-6.23-.24-.584-1.035-2.945.225-6.141 0 0 1.948-.623 6.382 2.38a22.239 22.239 0 015.809-.781c1.972.009 3.959.267 5.813.78 4.43-3.001 6.376-2.378 6.376-2.378 1.263 3.196.469 5.556.228 6.141 1.488 1.625 2.388 3.695 2.388 6.23 0 8.912-5.43 10.875-10.597 11.449.833.72 1.574 2.132 1.574 4.298 0 3.105-.026 5.603-.026 6.367 0 .617.418 1.341 1.594 1.113 9.216-3.072 15.856-11.768 15.856-22.017C58.168 11.383 47.78.994 34.962.994z" fill="#0C1827"/><path d="M20.546 34.312c-.052.116-.234.15-.398.071-.17-.076-.263-.233-.209-.349.05-.118.231-.151.4-.072.169.076.265.234.207.35zm.94 1.05c-.111.102-.328.054-.475-.108-.152-.162-.18-.379-.068-.482.114-.103.324-.055.475.107.153.163.183.378.067.482zm.914 1.335c-.142.1-.374.006-.518-.2-.143-.206-.143-.453.003-.553.144-.1.373-.01.518.195.143.21.143.458-.003.558zm1.254 1.292c-.127.14-.398.102-.596-.09-.203-.186-.26-.452-.133-.592.13-.14.402-.101.602.089.201.186.262.452.127.592zm1.73.749c-.057.182-.318.265-.58.188-.263-.08-.435-.293-.382-.476.054-.183.317-.269.582-.187.261.079.433.29.38.475zm1.898.14c.007.19-.216.35-.492.353-.277.006-.502-.149-.505-.337 0-.194.218-.35.495-.355.276-.006.502.148.502.338zm1.767-.301c.033.186-.158.378-.432.429-.27.05-.518-.066-.553-.251-.033-.191.162-.382.43-.432.275-.048.52.064.555.254zM13.61 59.243H7.774a.272.272 0 00-.273.273v2.853a.273.273 0 00.273.273h2.276v3.546s-.511.174-1.925.174c-1.667 0-3.997-.608-3.997-5.731 0-5.124 2.426-5.799 4.704-5.799 1.971 0 2.82.347 3.361.515.17.051.327-.118.327-.269l.651-2.757a.254.254 0 00-.105-.213c-.22-.157-1.558-.905-4.94-.905-3.897 0-7.894 1.657-7.894 9.627 0 7.97 4.576 9.157 8.433 9.157 3.193 0 5.13-1.365 5.13-1.365.08-.044.088-.155.088-.207v-8.9a.273.273 0 00-.273-.273zm29.81-7.36h-3.287a.275.275 0 00-.252.17.274.274 0 00-.02.105l.001 6.351H34.74v-6.351a.273.273 0 00-.27-.274h-3.287a.275.275 0 00-.251.17.274.274 0 00-.02.104v17.198c0 .151.122.275.271.275h3.286a.273.273 0 00.271-.275V62h5.123l-.008 7.356c0 .151.122.275.272.275h3.294a.274.274 0 00.271-.275V52.157a.272.272 0 00-.271-.273zm-25.727.392c-1.17 0-2.119.956-2.119 2.14 0 1.181.95 2.14 2.119 2.14a2.13 2.13 0 002.119-2.14 2.13 2.13 0 00-2.12-2.14zm1.612 5.24H16.03c-.15 0-.284.155-.284.306v11.374c0 .334.208.433.477.433h2.951c.325 0 .404-.159.404-.439v-11.4a.27.27 0 00-.167-.252.27.27 0 00-.105-.021zm36.876.026H52.92a.273.273 0 00-.271.275v8.433s-.83.605-2.005.605c-1.175 0-1.487-.533-1.487-1.684v-7.354a.272.272 0 00-.271-.275h-3.31a.274.274 0 00-.272.275v7.91c0 3.42 1.907 4.257 4.529 4.257 2.151 0 3.886-1.19 3.886-1.19s.081.628.12.702a.288.288 0 00.24.149l2.105-.01a.275.275 0 00.273-.275l-.002-11.545a.275.275 0 00-.273-.273zm8.914-.386c-1.852 0-3.112.826-3.112.826v-5.824a.273.273 0 00-.271-.274h-3.295a.273.273 0 00-.273.274v17.199a.273.273 0 00.273.274h2.286c.104 0 .181-.053.238-.146.057-.093.14-.793.14-.793s1.346 1.276 3.898 1.276c2.995 0 4.713-1.518 4.713-6.82 0-5.3-2.744-5.993-4.597-5.993zm-1.287 9.69c-1.13-.035-1.898-.548-1.898-.548V60.85s.757-.463 1.685-.547c1.175-.106 2.306.25 2.306 3.051 0 2.955-.51 3.538-2.092 3.49h-.001zm-34.74-.065c-.143 0-.51.058-.889.058-1.21 0-1.621-.563-1.621-1.291V60.71h2.465a.273.273 0 00.273-.275v-2.649a.272.272 0 00-.273-.274h-2.465l-.004-3.256c0-.124-.063-.186-.206-.186h-3.36c-.13 0-.2.058-.2.183v3.366s-1.684.406-1.798.439a.273.273 0 00-.196.262v2.114a.273.273 0 00.27.275h1.724v5.088c0 3.78 2.65 4.15 4.44 4.15.816 0 1.794-.261 1.955-.321.099-.037.155-.138.155-.247l.002-2.327a.278.278 0 00-.273-.273h.001z" fill="#0C1827"/></svg>