<svg width="30" height="30" fill="none" xmlns="http://www.w3.org/2000/svg"><path fill-rule="evenodd" clip-rule="evenodd" d="M15 .354c-5.506 0-9.971 4.465-9.971 9.972 0 4.405 2.857 8.143 6.819 9.462.498.092.681-.217.681-.48 0-.238-.01-1.023-.014-1.856-2.774.603-3.36-1.177-3.36-1.177-.453-1.152-1.106-1.46-1.106-1.46-.905-.618.068-.605.068-.605 1.001.07 1.529 1.027 1.529 1.027.889 1.525 2.332 1.084 2.901.83.09-.645.348-1.085.633-1.334-2.214-.252-4.543-1.107-4.543-4.928a3.86 3.86 0 011.028-2.677c-.104-.251-.445-1.265.096-2.639 0 0 .838-.268 2.743 1.023A9.557 9.557 0 0115 5.176a9.596 9.596 0 012.497.336c1.904-1.29 2.74-1.023 2.74-1.023.543 1.374.202 2.388.098 2.64.64.697 1.026 1.587 1.026 2.676 0 3.83-2.333 4.673-4.553 4.92.357.309.676.916.676 1.846 0 1.334-.011 2.408-.011 2.736 0 .265.18.577.685.479a9.972 9.972 0 006.813-9.461c0-5.506-4.464-9.97-9.971-9.97z" fill="#fff"/><path d="M8.806 14.67c-.023.05-.1.065-.172.031-.072-.032-.113-.1-.09-.15.022-.05.1-.065.173-.03.072.032.114.1.089.15zm.403.452c-.047.044-.14.023-.204-.046-.065-.07-.077-.163-.029-.208.05-.044.14-.023.204.046.066.07.079.163.03.208zm.393.574c-.06.042-.16.002-.222-.086-.062-.089-.062-.195 0-.238.063-.043.161-.004.224.084.061.09.061.197-.002.24zm.539.555c-.055.06-.171.044-.256-.039-.087-.08-.112-.194-.057-.254.056-.06.173-.044.258.038.087.08.113.194.055.254zm.743.322c-.024.078-.136.113-.249.08-.113-.034-.187-.125-.164-.204.023-.079.136-.116.25-.08.113.034.186.124.163.204zm.816.06c.003.081-.093.15-.211.151-.12.003-.216-.063-.217-.145 0-.082.093-.15.212-.152.119-.002.216.064.216.145zm.76-.13c.013.08-.069.163-.186.185-.116.021-.223-.028-.238-.108-.014-.082.07-.164.185-.186.118-.02.223.028.238.11zm-6.635 8.88H3.318a.117.117 0 00-.118.118v1.226a.117.117 0 00.118.117h.978v1.523s-.22.075-.828.075c-.716 0-1.717-.261-1.717-2.462 0-2.202 1.043-2.492 2.021-2.492.847 0 1.212.15 1.445.221.072.022.14-.05.14-.115l.28-1.185a.11.11 0 00-.045-.091c-.095-.068-.67-.39-2.123-.39-1.675 0-3.392.713-3.392 4.137C.077 29.49 2.043 30 3.7 30c1.372 0 2.205-.587 2.205-.587.034-.018.038-.066.038-.089V25.5a.117.117 0 00-.118-.117zm12.81-3.162h-1.413a.12.12 0 00-.083.035.119.119 0 00-.034.083v2.73h-2.2v-2.73a.117.117 0 00-.117-.118h-1.412a.12.12 0 00-.083.035.119.119 0 00-.034.083v7.39c0 .065.053.118.117.118h1.412a.117.117 0 00.116-.118v-3.161h2.202l-.004 3.16c0 .066.052.119.117.119h1.415a.117.117 0 00.117-.118v-7.39a.116.116 0 00-.117-.118zM7.58 22.39a.914.914 0 00-.91.92c0 .508.407.92.91.92.503 0 .91-.412.91-.92a.915.915 0 00-.91-.92zm.693 2.252H6.865c-.065 0-.122.067-.122.131v4.888c0 .143.09.186.205.186h1.268c.14 0 .173-.069.173-.189V24.76a.118.118 0 00-.116-.118zm15.845.011h-1.402a.119.119 0 00-.082.035.118.118 0 00-.034.083v3.624s-.356.26-.862.26c-.505 0-.639-.23-.639-.724v-3.16a.118.118 0 00-.116-.118H19.56a.118.118 0 00-.117.118v3.4c0 1.469.82 1.828 1.946 1.828.924 0 1.67-.51 1.67-.51s.035.269.051.3a.124.124 0 00.103.064l.905-.003a.117.117 0 00.117-.119v-4.96a.118.118 0 00-.118-.118zm3.83-.166a2.64 2.64 0 00-1.338.355V22.34a.115.115 0 00-.033-.083.116.116 0 00-.083-.035h-1.416a.116.116 0 00-.108.073.116.116 0 00-.009.045v7.39a.116.116 0 00.072.109c.014.005.03.009.045.009h.983c.044 0 .078-.023.102-.063.024-.04.06-.341.06-.341s.579.548 1.675.548c1.287 0 2.025-.652 2.025-2.93 0-2.277-1.179-2.575-1.975-2.575zm-.553 4.164c-.486-.015-.816-.236-.816-.236v-2.34s.325-.2.724-.235c.505-.045.991.107.991 1.31 0 1.27-.219 1.521-.899 1.5zm-14.927-.028c-.062 0-.22.025-.382.025-.52 0-.697-.242-.697-.555v-2.078h1.06a.118.118 0 00.108-.073.116.116 0 00.008-.045v-1.138a.117.117 0 00-.117-.118h-1.06v-1.399c0-.053-.028-.08-.09-.08H9.856c-.056 0-.086.025-.086.079v1.446s-.724.174-.772.189a.117.117 0 00-.085.112v.909a.117.117 0 00.117.118h.74V28.2c0 1.624 1.139 1.784 1.908 1.784.35 0 .77-.113.84-.139.042-.015.066-.059.066-.106l.001-1a.12.12 0 00-.117-.117z" fill="#fff"/></svg>