<svg width="30" height="30" fill="none" xmlns="http://www.w3.org/2000/svg"><path fill-rule="evenodd" clip-rule="evenodd" d="M15 23.181a8.182 8.182 0 100-16.363 8.182 8.182 0 000 16.364zm0-2.727a5.455 5.455 0 100-10.909 5.455 5.455 0 000 10.91z" fill="#fff"/><path d="M23.182 5.454a1.364 1.364 0 100 2.728 1.364 1.364 0 000-2.728z" fill="#fff"/><path fill-rule="evenodd" clip-rule="evenodd" d="M.892 4.467C0 6.217 0 8.51 0 13.091v3.818c0 4.582 0 6.873.892 8.624a8.182 8.182 0 003.575 3.575C6.217 30 8.51 30 13.091 30h3.818c4.582 0 6.873 0 8.624-.892a8.182 8.182 0 003.575-3.575C30 23.783 30 21.49 30 16.909v-3.818c0-4.582 0-6.873-.892-8.624A8.182 8.182 0 0025.533.892C23.783 0 21.49 0 16.909 0h-3.818C8.509 0 6.218 0 4.467.892A8.182 8.182 0 00.892 4.467zm16.017-1.74h-3.818c-2.336 0-3.924.002-5.152.103-1.195.097-1.807.274-2.233.492a5.455 5.455 0 00-2.384 2.384c-.218.426-.395 1.038-.492 2.233-.1 1.228-.103 2.816-.103 5.152v3.818c0 2.336.002 3.924.103 5.152.097 1.195.274 1.807.492 2.233a5.455 5.455 0 002.384 2.384c.426.217 1.038.395 2.233.492 1.228.1 2.816.103 5.152.103h3.818c2.336 0 3.924-.003 5.152-.103 1.195-.097 1.807-.275 2.233-.492a5.455 5.455 0 002.384-2.384c.217-.426.395-1.038.492-2.233.1-1.228.103-2.816.103-5.152v-3.818c0-2.336-.003-3.924-.103-5.152-.097-1.195-.275-1.807-.492-2.233a5.455 5.455 0 00-2.384-2.384c-.426-.218-1.038-.395-2.233-.492-1.228-.1-2.816-.103-5.152-.103z" fill="#fff"/></svg>