<svg width="40" height="40" viewBox="0 0 61 60" fill="none" xmlns="http://www.w3.org/2000/svg"><path d="M1.896.468v58.441h58.442V.468H1.896zM32.81 50.266c-.863 1.753-2.51 2.904-4.417 3.46-2.932.673-5.736.29-7.822-.962-1.397-.857-2.487-2.175-3.227-3.695l4.45-2.725c.04.016.157.227.313.5.567.951 1.057 1.625 2.02 2.097.944.323 3.02.53 3.821-1.134.49-.847.334-3.567.334-6.576 0-4.73.021-9.439.021-14.114h5.475c0 5.143.028 10.014 0 15.032.011 3.076.279 5.819-.968 8.117zm22.71-1.547c-1.903 6.51-12.512 6.72-16.752 2.42-.896-1.012-1.457-1.54-1.991-2.71 2.253-1.295 2.253-1.295 4.445-2.564 1.19 1.83 2.292 2.837 4.273 3.25 2.687.328 5.39-.596 4.784-3.45-.623-2.331-5.502-2.898-8.823-5.391-3.372-2.264-4.162-7.766-1.391-10.91.923-1.163 2.498-2.03 4.15-2.448l1.724-.223c3.31-.067 5.38.808 6.9 2.504.422.428.767.89 1.412 1.891-1.763 1.124-1.758 1.113-4.284 2.749-.54-1.163-1.435-1.892-2.381-2.209-1.469-.445-3.321.039-3.706 1.591-.133.478-.105.924.106 1.714.596 1.357 2.593 1.947 4.385 2.77 5.157 2.092 6.898 4.335 7.327 7.004.412 2.299-.1 3.79-.178 4.012z" fill="#fff"/></svg>