<svg width="40" height="40" viewBox="0 0 60 61" fill="none" xmlns="http://www.w3.org/2000/svg"><path d="M30.038 35.446a5.33 5.33 0 100-10.66 5.33 5.33 0 000 10.66z" fill="#fff"/><path d="M50.282 21.327a52.175 52.175 0 00-3.225-1.075c.28-1.122.514-2.245.7-3.32.983-6.171-.093-10.52-3.085-12.202-.888-.515-1.87-.749-2.992-.749-3.273 0-7.434 2.432-11.642 6.5-4.207-4.068-8.369-6.5-11.641-6.5-1.122 0-2.104.234-2.992.748-2.993 1.73-4.068 6.078-3.086 12.203a46.66 46.66 0 00.701 3.32c-1.122.327-2.197.654-3.226 1.075C3.95 23.57.771 26.657.771 30.117c0 3.46 3.226 6.545 9.023 8.79 1.029.373 2.104.747 3.226 1.075a46.908 46.908 0 00-.701 3.319c-.982 6.171.093 10.52 3.085 12.203.889.514 1.87.748 2.993.748 3.32 0 7.48-2.431 11.641-6.499 4.208 4.068 8.37 6.499 11.642 6.499 1.122 0 2.104-.234 2.992-.748 2.992-1.73 4.068-6.078 3.086-12.203a46.964 46.964 0 00-.701-3.32c1.122-.327 2.197-.654 3.225-1.075 5.845-2.244 9.024-5.33 9.024-8.79 0-3.46-3.18-6.545-9.023-8.79zm-6.919-14.26c1.917 1.122 2.572 4.582 1.777 9.491-.14.982-.374 2.01-.655 3.086-2.431-.561-5.002-.935-7.714-1.169a67.465 67.465 0 00-4.863-6.078c3.46-3.413 6.967-5.75 9.819-5.75.608 0 1.169.14 1.636.42zm-5.236 27.725c-.842 1.496-1.824 2.992-2.852 4.488-1.73.14-3.46.187-5.237.187-1.823 0-3.553-.047-5.236-.187a58.873 58.873 0 01-2.805-4.488 75.386 75.386 0 01-2.478-4.675 75.36 75.36 0 012.478-4.676c.841-1.496 1.823-2.992 2.852-4.488 1.73-.14 3.46-.187 5.236-.187 1.823 0 3.553.047 5.236.187a58.936 58.936 0 012.806 4.488 75.358 75.358 0 012.478 4.676c-.795 1.542-1.59 3.085-2.478 4.675zm3.88-1.543c.702 1.636 1.263 3.226 1.777 4.816-1.59.374-3.273.654-5.05.888.561-.888 1.17-1.823 1.684-2.805.56-.982 1.075-1.964 1.59-2.899zm-11.969 12.67a52.578 52.578 0 01-3.226-3.88c1.076.046 2.151.093 3.226.093 1.076 0 2.151-.047 3.226-.093a52.58 52.58 0 01-3.226 3.88zm-8.696-7.013c-1.776-.234-3.46-.514-5.05-.888.515-1.543 1.076-3.18 1.777-4.816.515.935 1.03 1.917 1.59 2.852.561 1.029 1.122 1.917 1.683 2.852zM18.07 26.984c-.702-1.636-1.263-3.226-1.777-4.816 1.59-.373 3.273-.654 5.05-.888-.562.889-1.17 1.824-1.684 2.805-.56.982-1.075 1.964-1.59 2.9zm11.968-12.67a52.56 52.56 0 013.226 3.88 74.222 74.222 0 00-3.226-.093c-1.075 0-2.15.047-3.226.094a52.56 52.56 0 013.226-3.881zm10.38 9.818l-1.684-2.805c1.777.234 3.46.514 5.05.888-.514 1.543-1.075 3.18-1.777 4.816-.514-.982-1.028-1.964-1.59-2.899zm-25.481-7.574c-.795-4.909-.14-8.369 1.777-9.49.467-.281 1.028-.422 1.636-.422 2.805 0 6.312 2.291 9.818 5.751-1.636 1.777-3.273 3.834-4.862 6.078a63.546 63.546 0 00-7.714 1.169c-.281-1.075-.468-2.104-.655-3.086zM3.389 30.117c0-2.198 2.665-4.536 7.34-6.265a28.04 28.04 0 012.992-.982 68.147 68.147 0 002.806 7.293c-1.123 2.478-2.104 4.91-2.806 7.247C7.27 35.54 3.39 32.735 3.39 30.117zm13.325 23.049c-1.917-1.122-2.572-4.582-1.777-9.491.14-.982.374-2.01.655-3.086 2.43.561 5.002.935 7.714 1.17a67.448 67.448 0 004.862 6.077c-3.46 3.413-6.966 5.75-9.818 5.75-.608 0-1.169-.14-1.636-.42zm28.426-9.491c.794 4.91.14 8.369-1.777 9.491-.468.28-1.029.42-1.636.42-2.805 0-6.312-2.29-9.818-5.75 1.636-1.777 3.272-3.834 4.862-6.078a63.55 63.55 0 007.714-1.169c.28 1.076.468 2.104.655 3.086zm4.207-7.293a28.04 28.04 0 01-2.992.981 68.176 68.176 0 00-2.805-7.293c1.122-2.478 2.104-4.91 2.805-7.247 6.452 1.87 10.333 4.675 10.333 7.294 0 2.197-2.712 4.535-7.34 6.265z" fill="#fff"/></svg>