<svg width="40" height="40" viewBox="0 0 61 61" fill="none" xmlns="http://www.w3.org/2000/svg"><path fill-rule="evenodd" clip-rule="evenodd" d="M.765 27.216c0 .328.097.545.151.756.353 1.371 1.113 2.548 2.015 3.622 1.283 1.53 2.856 2.76 4.466 3.919 1.397 1.004 2.823 1.986 4.226 2.983.24.171.468.368.73.578-.226.121-.412.228-.607.327-1.851.939-3.632 1.991-5.273 3.266-.99.769-1.946 1.586-2.622 2.653-1.087 1.717-1.472 3.546-.661 5.499.236.57.597 1.063 1.106 1.427.165.118.35.235.544.28.494.117.998.193 1.499.285h1.418c1.568-.14 2.995-.678 4.285-1.568 2.016-1.391 3.375-3.257 3.958-5.65.425-1.741.442-3.483-.058-5.215a5.471 5.471 0 00-.165-.474c-.061-.156-.133-.308-.217-.502l3.215-1.848.048.04c-.058.192-.12.383-.173.576-.382 1.395-.636 2.814-.545 4.262.097 1.543.528 2.987 1.431 4.276.73 1.043 2.47 1.082 3.247.036.275-.372.542-.76.742-1.175.525-1.083 1.01-2.184 1.51-3.278l.088-.2c-.036.518-.078.973-.097 1.428-.03.711.012 1.418.255 2.095.208.578.562 1.01 1.225 1.087.453.052.814-.156 1.148-.419a4.854 4.854 0 001.258-1.495c.889-1.633 1.801-3.255 2.607-4.928.871-1.81 1.634-3.673 2.443-5.513l.133-.327c.192.752.325 1.487.57 2.184.286.808.639 1.598 1.023 2.365.182.362.16.597-.091.901-1.055 1.272-2.092 2.56-3.129 3.845-.23.284-.458.572-.65.883a1.729 1.729 0 00-.224.637.812.812 0 00.647.922c.415.09.842.12 1.266.09 1.448-.107 2.763-.615 3.925-1.476 1.506-1.116 1.99-2.638 1.624-4.442-.098-.49-.273-.966-.442-1.437-.076-.213-.082-.362.057-.56 1.204-1.72 2.233-3.543 3.19-5.41a1.11 1.11 0 01.142-.225c.31 1.613.777 3.168 1.613 4.578-.426.411-.849.784-1.23 1.194-.842.905-1.571 1.887-1.952 3.084-.163.516-.29 1.04-.216 1.592.113.856.814 1.412 1.656 1.217 1.802-.417 3.358-1.266 4.494-2.77.765-1.013.835-2.142.514-3.325-.087-.322-.192-.639-.304-1.008.445-.137.878-.303 1.326-.405 2.328-.531 4.631-.439 6.874.402 1.31.49 2.368 1.312 2.995 2.604.766 1.58.343 3.08-1.146 4.078-.139.093-.298.166-.413.283a.408.408 0 00-.096.313c.01.057.162.13.25.128.489-.003.886-.26 1.267-.524.955-.66 1.651-1.549 1.801-2.72l.03-.087-.036-.762c-.015-.044.01-.088.007-.12-.203-1.705-1.113-3.027-2.437-4.063-1.534-1.199-3.344-1.693-5.26-1.77a11.874 11.874 0 00-4.565.702c-.42.152-.835.332-1.257.502-.056-.103-.117-.201-.167-.302-.433-.887-.957-1.734-1.073-2.75-.083-.722-.184-1.443-.012-2.157.165-.687.38-1.362.583-2.04.104-.348.03-.544-.303-.7a1.333 1.333 0 00-.367-.122 5.66 5.66 0 00-2.418.18c-.28.082-.484.239-.546.55-.036.178-.108.348-.159.524-.207.73-.354 1.475-.688 2.172-.84 1.746-1.797 3.426-2.777 5.094-.106.18-.218.357-.351.575-.344-.72-.711-1.366-.823-2.123-.125-.857-.224-1.712-.011-2.562.158-.634.365-1.256.556-1.882.09-.297.049-.453-.22-.61a1.297 1.297 0 00-.444-.172 5.444 5.444 0 00-2.503.205c-.254.082-.387.246-.465.508-.228.773-.422 1.564-.743 2.298a783.505 783.505 0 01-3.964 8.89c-.278.617-.604 1.213-.918 1.814-.08.153-.195.287-.294.43-.08-.094-.11-.158-.11-.223.002-.38-.043-.771.03-1.139.222-1.111.468-2.218.737-3.319.22-.91.476-1.811.72-2.715.081-.302.082-.585-.135-.84-.365-.425-1.128-.52-1.58-.19l-.2.112.038-.322c.096-.692.115-1.38-.075-2.062-.237-.85-.843-1.338-1.724-1.31-.41.012-.841.082-1.221.232-1.599.626-2.828 1.736-3.874 3.07a1.213 1.213 0 01-.354.306c-1.353.75-2.71 1.49-4.066 2.234l-1.51.827c-.404-.386-.772-.787-1.19-1.127-1.275-1.04-2.57-2.053-3.854-3.082-1.138-.91-2.24-1.86-3.084-3.067-.627-.897-1.032-1.88-1.07-2.99-.05-1.414.351-2.706 1.071-3.909.921-1.54 2.178-2.774 3.559-3.893 1.46-1.183 3.041-2.187 4.679-3.104 2.291-1.283 4.648-2.418 7.175-3.167 2.591-.769 5.22-1.209 7.932-.902 1.066.12 2.101.365 3.051.886.728.399 1.325.921 1.603 1.737.274.804.266 1.617.076 2.433-.386 1.653-1.29 3.015-2.429 4.232-1.867 1.995-4.145 3.353-6.71 4.25a18.456 18.456 0 01-4.565.974c-1.276.107-2.525-.006-3.733-.45-.8-.294-1.497-.744-2.057-1.396-.1-.117-.228-.244-.415-.135-.182.108-.215.282-.153.458.102.293.196.598.356.86.4.656.985 1.133 1.628 1.541 1.236.786 2.617 1.05 4.05 1.112 2.172.094 4.292-.23 6.383-.814 2.984-.832 5.579-2.302 7.66-4.621 1.732-1.93 2.97-4.11 3.235-6.741.13-1.285-.008-2.543-.61-3.714-.652-1.27-1.689-2.214-2.929-2.864-1.805-.947-3.754-1.498-5.765-1.498h-2.015c-2.436 0-4.791.698-7.08 1.53a48.656 48.656 0 00-5.081 2.2c-3.592 1.794-6.938 3.959-9.685 6.934-1.37 1.483-2.528 3.119-3.195 5.045-.201.575-.374 1.16-.52 1.751m13.016 16.838c-.155 2.084-1.1 3.775-2.644 5.143-.87.77-1.865 1.318-3.026 1.51-.42.07-.851.087-1.26-.087-.582-.249-.712-.766-.723-1.316-.017-.877.29-1.67.71-2.425.55-.983 1.357-1.733 2.218-2.433 1.355-1.104 2.826-2.038 4.333-2.92l.113-.047c.233.86.344 1.71.28 2.575zm11.763-9.06a15.9 15.9 0 01-.442 1.977c-.673 2.233-1.536 4.397-2.47 6.532-.172.395-.423.756-.642 1.13a.79.79 0 01-.132.157c-.27.267-.526.253-.663-.097-.159-.405-.257-.84-.34-1.27-.057-.288-.044-.59-.062-.886.019-2.101.66-4.01 1.747-5.788.449-.734.937-1.432 1.682-1.896.232-.144.483-.255.746-.33.397-.112.642.072.576.47zm8.024 10.223l2.885-3.367c.12 1.25-2.006 3.747-2.885 3.367zm9.212-2.266c-.204.117-.426.201-.635.31-.191.098-.254-.002-.26-.166a1.117 1.117 0 01.044-.337 7.25 7.25 0 012.172-3.5l.075-.039a3.09 3.09 0 01-1.396 3.732z" fill="#fff"/></svg>