<svg width="434" height="366" fill="none" xmlns="http://www.w3.org/2000/svg"><path d="M0 .51c50.4 30.142 100.8 60.284 135.36 89.48 34.4 29.196 52.96 57.446 101.12 76.234 48 18.788 125.6 28.114 163.2 59.879 37.6 31.764 35.36 85.83 32.96 139.897H0V.51z" fill="#18223C"/><path d="M0 73.635c40.32 24.06 80.64 48.254 108.32 71.638 27.52 23.248 42.4 45.821 80.8 60.96 38.56 15.003 100.64 22.438 130.72 47.849C349.92 279.493 348 322.747 346.08 366H0V73.635z" fill="#683A67"/><path d="M0 146.76c30.24 17.977 60.48 36.089 81.12 53.661 20.8 17.572 31.84 34.467 60.8 45.686 28.8 11.354 75.36 16.896 97.92 35.955C262.4 301.12 260.96 333.56 259.52 366H0V146.76z" fill="#C0526A"/><path d="M0 219.75c20.16 12.165 40.32 24.194 54.08 35.819 13.92 11.759 21.28 22.978 40.48 30.547 19.2 7.435 50.24 11.219 65.28 23.925 15.04 12.706 14.24 34.332 13.28 55.959H0V219.75z" fill="#F6884D"/><path d="M0 292.875c10.08 6.082 20.16 12.03 27.04 17.977 6.88 5.812 10.56 11.489 20.32 15.139 9.6 3.784 25.12 5.677 32.64 12.029 7.52 6.353 7.04 17.167 6.56 27.98H0v-73.125z" fill="#FBAE3C"/></svg>