<svg width="433" height="366" fill="none" xmlns="http://www.w3.org/2000/svg"><path d="M433 365.491c-56.16-4.731-112.32-9.462-165.6-27.845-53.28-18.247-103.68-50.011-127.36-90.156-23.84-40.009-20.8-88.399-39.68-131.111C81.64 73.801 41 36.9.36 0H433v365.491z" fill="#18223C"/><path d="M433 292.365c-44.96-3.784-89.76-7.569-132.48-22.167-42.56-14.733-82.88-40.144-101.92-72.179-19.04-32.034-16.64-70.827-31.68-104.89C151.88 58.934 119.4 29.467 86.92 0H433v292.365z" fill="#683A67"/><path d="M433 219.24c-33.76-2.838-67.36-5.677-99.36-16.625-32-10.949-62.24-30.007-76.48-54.067-14.24-24.059-12.48-53.12-23.68-78.667C222.12 44.2 197.8 22.167 173.48 0H433v219.24z" fill="#C0526A"/><path d="M433 146.25c-22.4-1.892-44.96-3.919-66.24-11.218-21.28-7.299-41.44-20.005-51.04-35.955-9.44-16.085-8.16-35.413-15.68-52.58C292.36 29.467 276.2 14.733 259.88 0H433v146.25z" fill="#F6884D"/><path d="M433 73.125c-11.2-.946-22.4-1.892-33.12-5.542-10.72-3.65-20.8-10.002-25.44-18.112-4.8-7.975-4.16-17.707-8-26.222-3.68-8.516-11.84-15.815-20-23.249H433v73.125z" fill="#FBAE3C"/></svg>