<svg width="52" height="60" viewBox="0 0 52 60" fill="none" xmlns="http://www.w3.org/2000/svg">
<path d="M0.250977 0.428467L4.95202 53.205L26.0462 59.0866L47.1993 53.1835L51.9041 0.428467H0.250977ZM42.1378 12.5198L40.5729 30.1014L40.5776 30.1963L40.5711 30.4147V30.4128L39.4593 42.7061L39.3368 43.7983L26.0775 47.4656V47.4661L26.0672 47.4749L12.8309 43.787L11.9346 33.6233H18.4254L18.8859 38.7914L26.0794 40.7411L26.0775 40.7448V40.7439L33.2976 38.7667L34.0606 30.3506H18.9673L18.8378 28.9279L18.5428 25.5949L18.388 23.8051H34.6343L35.2253 17.2597H10.4806L10.3511 15.8379L10.0566 12.5039L9.90133 10.7142H42.2925L42.1378 12.5198V12.5198Z" fill="white"/>
</svg>
