<svg width="30" height="30" viewBox="0 0 30 30" fill="none" xmlns="http://www.w3.org/2000/svg">
<path fill-rule="evenodd" clip-rule="evenodd" d="M16.3837 29.937C24.0193 29.2387 30 22.8178 30 15C30 6.71573 23.2843 0 15 0C6.71573 0 0 6.71573 0 15C0 22.289 5.19897 28.3636 12.091 29.7181V19.4951H10V15.9609H12.091V13.0711L12.0909 13.0355C12.0886 12.4021 12.0762 9.00479 16.4897 9H19.6695V12.6806H17.328C16.8655 12.6806 16.3981 13.1688 16.3981 13.53V15.9463H19.6646C19.5346 17.8013 19.2648 19.4951 19.2648 19.4951H16.3837V29.937Z" fill="white"/>
</svg>
