<svg width="40" height="40" viewBox="0 0 70 71" fill="none" xmlns="http://www.w3.org/2000/svg">
<path d="M24.8317 70.5327C31.3226 70.5327 36.559 65.2963 36.559 58.8054V47.0781H24.8317C18.3407 47.0781 13.1044 52.3145 13.1044 58.8054C13.1044 65.2963 18.3407 70.5327 24.8317 70.5327Z" fill="#0ACF83"/>
<path d="M13.1044 35.3508C13.1044 28.8599 18.3407 23.6235 24.8317 23.6235H36.559V47.0781H24.8317C18.3407 47.0781 13.1044 41.8417 13.1044 35.3508Z" fill="#A259FF"/>
<path d="M13.1044 11.8962C13.1044 5.40532 18.3407 0.168945 24.8317 0.168945H36.559V23.6235H24.8317C18.3407 23.6235 13.1044 18.3872 13.1044 11.8962Z" fill="#F24E1E"/>
<path d="M36.559 0.168945H48.2863C54.7772 0.168945 60.0135 5.40532 60.0135 11.8962C60.0135 18.3872 54.7772 23.6235 48.2863 23.6235H36.559V0.168945Z" fill="#FF7262"/>
<path d="M60.0135 35.3508C60.0135 41.8417 54.7772 47.0781 48.2863 47.0781C41.7953 47.0781 36.559 41.8417 36.559 35.3508C36.559 28.8599 41.7953 23.6235 48.2863 23.6235C54.7772 23.6235 60.0135 28.8599 60.0135 35.3508Z" fill="#1ABCFE"/>
</svg>
