<svg width="60" height="61" viewBox="0 0 60 61" fill="none" xmlns="http://www.w3.org/2000/svg">
<path d="M58.474 27.488L32.7054 1.72039C31.2224 0.236434 28.8155 0.236434 27.3302 1.72039L21.9797 7.07177L28.7674 13.8594C30.3453 13.3269 32.1537 13.6841 33.4109 14.9413C34.6746 16.2064 35.029 18.0303 34.4834 19.6134L41.0252 26.1555C42.6078 25.6099 44.4344 25.9625 45.6977 27.2285C47.465 28.9944 47.465 31.8571 45.6977 33.6239C45.2777 34.0441 44.7791 34.3774 44.2302 34.6048C43.6814 34.8322 43.0931 34.9493 42.4991 34.9493C41.905 34.9493 41.3167 34.8322 40.7679 34.6048C40.219 34.3774 39.7204 34.0441 39.3004 33.6239C38.6694 32.9925 38.2393 32.1886 38.0642 31.3134C37.8891 30.4381 37.9768 29.5306 38.3163 28.705L32.2159 22.6046L32.215 38.6602C32.6576 38.8782 33.0617 39.1668 33.4114 39.5148C35.1777 41.2807 35.1777 44.1425 33.4114 45.9121C31.6446 47.678 28.7809 47.678 27.016 45.9121C25.2496 44.143 25.2496 41.2812 27.016 39.5148C27.4392 39.091 27.9425 38.7556 28.4967 38.5284V22.3241C27.9421 22.0975 27.4386 21.7618 27.016 21.3372C25.6779 20 25.3558 18.0364 26.0421 16.3925L19.3503 9.70071L1.68128 27.3688C0.968444 28.0819 0.567993 29.0488 0.567993 30.0571C0.567993 31.0654 0.968444 32.0324 1.68128 32.7454L27.4503 58.5131C28.9343 59.997 31.3402 59.997 32.8265 58.5131L58.4744 32.8651C59.1871 32.1519 59.5874 31.1848 59.5873 30.1765C59.5872 29.1682 59.1868 28.2012 58.474 27.488Z" fill="white"/>
</svg>
