<svg width="30" height="30" viewBox="0 0 30 30" fill="none" xmlns="http://www.w3.org/2000/svg">
<path fill-rule="evenodd" clip-rule="evenodd" d="M15 0.354492C9.49388 0.354492 5.02856 4.81863 5.02856 10.326C5.02856 14.7315 7.8856 18.4693 11.8477 19.7877C12.346 19.88 12.529 19.5714 12.529 19.3079C12.529 19.0703 12.5197 18.2846 12.5154 17.4517C9.74114 18.0547 9.15591 16.2751 9.15591 16.2751C8.70239 15.1225 8.04872 14.8159 8.04872 14.8159C7.14403 14.1971 8.11669 14.2098 8.11669 14.2098C9.11817 14.2801 9.64552 15.2375 9.64552 15.2375C10.5347 16.7619 11.9783 16.3211 12.5471 16.0663C12.6368 15.4218 12.8951 14.9816 13.1804 14.7327C10.9655 14.4807 8.63724 13.6255 8.63724 9.80473C8.63724 8.71605 9.02677 7.8266 9.66474 7.12816C9.56114 6.87691 9.21989 5.86254 9.7613 4.4891C9.7613 4.4891 10.5985 4.22145 12.5035 5.51168C13.2992 5.29066 14.1523 5.1798 14.9996 5.17605C15.8471 5.18004 16.7007 5.2909 17.4975 5.51168C19.4007 4.22168 20.2369 4.48934 20.2369 4.48934C20.7797 5.86277 20.4385 6.87691 20.3349 7.1284C20.9743 7.82637 21.361 8.71605 21.361 9.80496C21.361 13.6346 19.0283 14.4779 16.8078 14.7245C17.1654 15.0339 17.4842 15.6409 17.4842 16.5714C17.4842 17.9054 17.4729 18.9791 17.4729 19.3075C17.4729 19.5723 17.6525 19.8836 18.1578 19.7856C22.1178 18.4656 24.9711 14.7292 24.9711 10.325C24.9715 4.81887 20.5072 0.354492 15 0.354492Z" fill="white"/>
<path d="M8.80551 14.6709C8.78324 14.7206 8.70519 14.7354 8.63441 14.7014C8.56176 14.6686 8.52144 14.6013 8.54488 14.5514C8.56597 14.5008 8.64426 14.4865 8.71668 14.5205C8.78933 14.5533 8.83058 14.6212 8.80574 14.6709H8.80551ZM9.20933 15.1219C9.16175 15.1657 9.06871 15.1453 9.00543 15.0755C8.94027 15.0058 8.92808 14.9128 8.97636 14.8683C9.02511 14.8242 9.11535 14.8448 9.18027 14.9144C9.2459 14.9847 9.25879 15.0769 9.2091 15.1216L9.20933 15.1219ZM9.60238 15.6956C9.54144 15.7383 9.44136 15.6984 9.37972 15.6096C9.31832 15.5212 9.31832 15.4151 9.3809 15.3722C9.44277 15.3295 9.54121 15.368 9.60355 15.4558C9.66496 15.5461 9.66496 15.6527 9.60238 15.6958V15.6956ZM10.141 16.2506C10.0864 16.3108 9.96988 16.2947 9.8848 16.2124C9.79761 16.132 9.77347 16.0179 9.82808 15.9576C9.88363 15.8974 10.0006 15.9143 10.0864 15.9958C10.1731 16.076 10.1993 16.1904 10.141 16.2504V16.2506ZM10.8844 16.5726C10.86 16.6509 10.748 16.6863 10.635 16.6533C10.5221 16.619 10.4485 16.5276 10.471 16.4489C10.4944 16.3701 10.6074 16.3333 10.7211 16.3687C10.8336 16.4025 10.9074 16.493 10.8842 16.5726H10.8844ZM11.7 16.6324C11.7031 16.7144 11.6072 16.7829 11.4886 16.7843C11.3696 16.7871 11.273 16.7205 11.2716 16.6394C11.2716 16.5565 11.3653 16.489 11.4844 16.4871C11.603 16.4847 11.7 16.5508 11.7 16.6324ZM12.4594 16.5033C12.4735 16.5834 12.3914 16.6659 12.2736 16.6877C12.1578 16.7093 12.0509 16.6596 12.0359 16.5799C12.0218 16.4979 12.1055 16.4158 12.2211 16.3943C12.3389 16.3737 12.4444 16.4219 12.4594 16.5035V16.5033Z" fill="white"/>
<path d="M5.82542 25.3834H3.31761C3.28653 25.3834 3.25672 25.3957 3.23474 25.4177C3.21277 25.4397 3.20042 25.4695 3.20042 25.5006V26.7268C3.20042 26.7579 3.21277 26.7877 3.23474 26.8097C3.25672 26.8317 3.28653 26.844 3.31761 26.844H4.29565V28.3675C4.29565 28.3675 4.07605 28.4425 3.46831 28.4425C2.75206 28.4425 1.75104 28.1809 1.75104 25.9796C1.75104 23.7782 2.79354 23.4882 3.77229 23.4882C4.61933 23.4882 4.98401 23.6373 5.21651 23.7093C5.28917 23.7313 5.35714 23.6586 5.35714 23.5939L5.63675 22.4092C5.6372 22.3914 5.63334 22.3739 5.6255 22.3579C5.61767 22.342 5.60608 22.3282 5.59175 22.3178C5.49729 22.2503 4.92214 21.9287 3.46878 21.9287C1.7944 21.9287 0.0769043 22.6407 0.0769043 26.0654C0.0769043 29.4896 2.04331 29.9999 3.70034 29.9999C5.07237 29.9999 5.90464 29.4135 5.90464 29.4135C5.93886 29.3947 5.94261 29.3467 5.94261 29.3244V25.5004C5.94261 25.4693 5.93026 25.4395 5.90828 25.4175C5.88631 25.3955 5.8565 25.3832 5.82542 25.3832V25.3834ZM18.6342 22.2212H17.2219C17.2065 22.2213 17.1912 22.2244 17.177 22.2303C17.1628 22.2363 17.1499 22.245 17.1391 22.2559C17.1283 22.2669 17.1197 22.2799 17.1139 22.2941C17.108 22.3084 17.1051 22.3237 17.1052 22.3391L17.1057 25.0682H14.9044V22.3391C14.9045 22.3237 14.9016 22.3085 14.8958 22.2942C14.89 22.2799 14.8814 22.267 14.8706 22.256C14.8598 22.2451 14.8469 22.2364 14.8327 22.2304C14.8185 22.2244 14.8033 22.2213 14.7879 22.2212H13.3758C13.3604 22.2213 13.3452 22.2244 13.3309 22.2303C13.3167 22.2363 13.3038 22.245 13.293 22.2559C13.2822 22.2669 13.2736 22.2799 13.2678 22.2941C13.2619 22.3084 13.259 22.3237 13.2591 22.3391V29.7289C13.2591 29.7939 13.3116 29.8468 13.3758 29.8468H14.7879C14.8033 29.8467 14.8186 29.8436 14.8328 29.8376C14.847 29.8316 14.8598 29.8229 14.8707 29.8119C14.8815 29.801 14.89 29.788 14.8958 29.7737C14.9016 29.7594 14.9045 29.7441 14.9044 29.7287V26.5679H17.1057L17.1019 29.7287C17.1019 29.7939 17.1544 29.8468 17.2191 29.8468H18.6342C18.6497 29.8467 18.6649 29.8436 18.6791 29.8376C18.6933 29.8316 18.7062 29.8229 18.717 29.8119C18.7278 29.801 18.7364 29.788 18.7421 29.7737C18.7479 29.7594 18.7509 29.7441 18.7507 29.7287V22.3389C18.7509 22.3235 18.748 22.3082 18.7422 22.2939C18.7364 22.2797 18.7279 22.2667 18.717 22.2557C18.7062 22.2448 18.6933 22.2361 18.6791 22.2302C18.6649 22.2243 18.6496 22.2212 18.6342 22.2212ZM7.57972 22.3893C7.07722 22.3893 6.6694 22.8001 6.6694 23.3087C6.6694 23.8166 7.07722 24.2286 7.57972 24.2286C8.08269 24.2286 8.49026 23.8166 8.49026 23.3087C8.49026 22.8001 8.08245 22.3893 7.57972 22.3893ZM8.27253 24.6411H6.86487C6.80019 24.6411 6.74253 24.7077 6.74253 24.7724V29.6596C6.74253 29.8032 6.83206 29.8459 6.94784 29.8459H8.21581C8.35526 29.8459 8.38925 29.7775 8.38925 29.6572V24.759C8.38931 24.7436 8.38634 24.7284 8.38051 24.7141C8.37467 24.6999 8.36609 24.6869 8.35526 24.676C8.34442 24.6651 8.33153 24.6564 8.31734 24.6505C8.30315 24.6445 8.28792 24.6414 8.27253 24.6414V24.6411ZM24.1177 24.6521H22.7161C22.7007 24.6523 22.6855 24.6554 22.6713 24.6614C22.6572 24.6674 22.6443 24.6762 22.6335 24.6871C22.6227 24.6981 22.6142 24.7111 22.6084 24.7254C22.6027 24.7396 22.5997 24.7549 22.5999 24.7703V28.3937C22.5999 28.3937 22.2436 28.6539 21.7385 28.6539C21.2335 28.6539 21.0994 28.4249 21.0994 27.9301V24.7703C21.0995 24.7549 21.0966 24.7396 21.0908 24.7253C21.085 24.711 21.0765 24.698 21.0657 24.6871C21.0548 24.6761 21.042 24.6673 21.0278 24.6614C21.0136 24.6554 20.9983 24.6522 20.9829 24.6521H19.5607C19.5296 24.6524 19.4999 24.665 19.478 24.6871C19.4561 24.7092 19.4439 24.7391 19.444 24.7703V28.1692C19.444 29.6387 20.2632 29.9982 21.3898 29.9982C22.3142 29.9982 23.0595 29.4873 23.0595 29.4873C23.0595 29.4873 23.0946 29.7568 23.111 29.7885C23.1275 29.8204 23.1689 29.8525 23.2142 29.8525L24.1189 29.8485C24.1343 29.8484 24.1496 29.8453 24.1638 29.8393C24.1781 29.8334 24.191 29.8247 24.2019 29.8137C24.2128 29.8027 24.2214 29.7897 24.2273 29.7754C24.2331 29.7611 24.2361 29.7458 24.236 29.7304L24.2353 24.7696C24.2352 24.7385 24.2228 24.7087 24.2009 24.6867C24.179 24.6647 24.1492 24.6522 24.1182 24.6519L24.1177 24.6521ZM27.9478 24.4862C27.1519 24.4862 26.6105 24.8413 26.6105 24.8413V22.3389C26.6106 22.3235 26.6077 22.3082 26.6018 22.294C26.596 22.2797 26.5875 22.2667 26.5767 22.2558C26.5659 22.2449 26.553 22.2361 26.5388 22.2302C26.5246 22.2242 26.5094 22.2211 26.494 22.221H25.0782C25.0627 22.221 25.0474 22.224 25.0331 22.23C25.0189 22.2359 25.0059 22.2446 24.995 22.2555C24.9841 22.2665 24.9755 22.2795 24.9697 22.2938C24.9638 22.3081 24.9609 22.3234 24.961 22.3389V29.7287C24.9609 29.7442 24.9638 29.7595 24.9697 29.7738C24.9755 29.7881 24.9841 29.8011 24.995 29.812C25.0059 29.823 25.0189 29.8317 25.0331 29.8376C25.0474 29.8435 25.0627 29.8466 25.0782 29.8466H26.0607C26.1052 29.8466 26.1385 29.8239 26.1631 29.7838C26.1872 29.7439 26.2226 29.443 26.2226 29.443C26.2226 29.443 26.8015 29.9914 27.8979 29.9914C29.1846 29.9914 29.9229 29.3389 29.9229 27.0613C29.9229 24.7836 28.744 24.486 27.9476 24.486L27.9478 24.4862ZM27.3947 28.6496C26.9089 28.6349 26.5791 28.4143 26.5791 28.4143V26.0741C26.5791 26.0741 26.9044 25.8749 27.3033 25.8388C27.8079 25.7936 28.2942 25.9461 28.2942 27.1499C28.2942 28.4195 28.0751 28.67 27.395 28.6494L27.3947 28.6496ZM12.4676 28.622C12.406 28.622 12.248 28.6471 12.0856 28.6471C11.5653 28.6471 11.3888 28.4052 11.3888 28.0921V26.0141H12.4482C12.4636 26.0141 12.4789 26.011 12.4932 26.0051C12.5075 25.9991 12.5205 25.9904 12.5314 25.9794C12.5422 25.9685 12.5509 25.9554 12.5567 25.9411C12.5625 25.9268 12.5655 25.9114 12.5653 25.896V24.7579C12.5654 24.7424 12.5624 24.7271 12.5566 24.7129C12.5507 24.6986 12.5421 24.6856 12.5312 24.6747C12.5203 24.6638 12.5074 24.6551 12.4931 24.6492C12.4789 24.6432 12.4636 24.6402 12.4482 24.6402H11.3888L11.3871 23.241C11.3871 23.1878 11.36 23.1613 11.2985 23.1613H9.8548C9.79901 23.1613 9.76878 23.1861 9.76878 23.2398V24.6859C9.76878 24.6859 9.04526 24.8605 8.99651 24.8746C8.97217 24.8817 8.95079 24.8965 8.93558 24.9168C8.92036 24.937 8.91214 24.9617 8.91214 24.9871V25.8957C8.91205 25.9111 8.91499 25.9264 8.92079 25.9406C8.92659 25.9549 8.93515 25.9679 8.94596 25.9788C8.95678 25.9898 8.96965 25.9985 8.98383 26.0044C8.99801 26.0104 9.01323 26.0135 9.02862 26.0136H9.76878V28.1999C9.76878 29.8241 10.9078 29.9835 11.6766 29.9835C12.0275 29.9835 12.4477 29.871 12.5171 29.8452C12.5592 29.8295 12.5834 29.7861 12.5834 29.739L12.5843 28.7394C12.5838 28.7084 12.5714 28.6789 12.5495 28.6569C12.5276 28.635 12.4981 28.6224 12.4671 28.6218L12.4676 28.622Z" fill="white"/>
</svg>
