<svg width="40" height="40" viewBox="0 0 70 70" fill="none" xmlns="http://www.w3.org/2000/svg">
<path fill-rule="evenodd" clip-rule="evenodd" d="M34.962 0.993652C22.1476 0.993652 11.7556 11.3829 11.7556 24.2001C11.7556 34.453 18.4047 43.1519 27.6256 46.2201C28.7853 46.435 29.2113 45.7166 29.2113 45.1035C29.2113 44.5504 29.1895 42.7221 29.1796 40.7835C22.7231 42.187 21.3611 38.0454 21.3611 38.0454C20.3056 35.3628 18.7844 34.6493 18.7844 34.6493C16.6789 33.2093 18.9425 33.2388 18.9425 33.2388C21.2733 33.4024 22.5005 35.6306 22.5005 35.6306C24.57 39.1783 27.9295 38.1523 29.2533 37.5594C29.4622 36.0593 30.0633 35.035 30.7271 34.4557C25.5725 33.8693 20.154 31.879 20.154 22.987C20.154 20.4533 21.0605 18.3833 22.5453 16.7579C22.3042 16.1731 21.51 13.8124 22.77 10.616C22.77 10.616 24.7184 9.99312 29.1518 12.9959C31.0036 12.4815 32.9891 12.2235 34.9609 12.2148C36.9333 12.224 38.9198 12.482 40.7744 12.9959C45.2035 9.99367 47.1497 10.6166 47.1497 10.6166C48.4129 13.8129 47.6188 16.1731 47.3777 16.7584C48.8657 18.3828 49.7657 20.4533 49.7657 22.9875C49.7657 31.9002 44.3368 33.8628 39.1691 34.4366C40.0015 35.1566 40.7433 36.5693 40.7433 38.7348C40.7433 41.8395 40.7171 44.3383 40.7171 45.1025C40.7171 45.7188 41.1349 46.4432 42.3109 46.2152C51.527 43.1432 58.1673 34.4475 58.1673 24.1979C58.1684 11.3835 47.7786 0.993652 34.962 0.993652Z" fill="#0C1827"/>
<path d="M20.5457 34.3122C20.4938 34.4278 20.3122 34.4622 20.1475 34.3831C19.9784 34.3067 19.8846 34.1502 19.9391 34.034C19.9882 33.9162 20.1704 33.8829 20.3389 33.962C20.508 34.0384 20.604 34.1965 20.5462 34.3122H20.5457ZM21.4855 35.3616C21.3748 35.4636 21.1582 35.4162 21.0109 35.2536C20.8593 35.0916 20.8309 34.8751 20.9433 34.7715C21.0568 34.6689 21.2667 34.7169 21.4178 34.8789C21.5706 35.0425 21.6006 35.2569 21.4849 35.3611L21.4855 35.3616ZM22.4002 36.6969C22.2584 36.7962 22.0255 36.7035 21.882 36.4967C21.7391 36.2911 21.7391 36.044 21.8848 35.9442C22.0288 35.8449 22.2578 35.9344 22.4029 36.1389C22.5458 36.3489 22.5458 36.5971 22.4002 36.6975V36.6969ZM23.6537 37.9886C23.5266 38.1287 23.2555 38.0911 23.0575 37.8996C22.8546 37.7126 22.7984 37.4469 22.9255 37.3067C23.0548 37.1666 23.3269 37.2058 23.5266 37.3956C23.7284 37.5822 23.7895 37.8484 23.6537 37.988V37.9886ZM25.3838 38.738C25.3271 38.9202 25.0664 39.0026 24.8035 38.9256C24.5406 38.846 24.3693 38.6333 24.4217 38.45C24.4762 38.2667 24.7391 38.1811 25.0037 38.2635C25.2655 38.342 25.4373 38.5526 25.3833 38.738H25.3838ZM27.282 38.8771C27.2891 39.068 27.066 39.2273 26.79 39.2306C26.5129 39.2371 26.2882 39.0822 26.2849 38.8935C26.2849 38.7004 26.5031 38.5433 26.7802 38.5389C27.0562 38.5335 27.282 38.6873 27.282 38.8771ZM29.0493 38.5766C29.082 38.7631 28.8911 38.9551 28.6168 39.0058C28.3473 39.056 28.0986 38.9404 28.0637 38.7549C28.0309 38.564 28.2257 38.3731 28.4946 38.3229C28.7689 38.2749 29.0144 38.3873 29.0493 38.5771V38.5766Z" fill="#0C1827"/>
<path d="M13.6102 59.2429H7.77382C7.70149 59.2429 7.63212 59.2716 7.58098 59.3228C7.52983 59.3739 7.5011 59.4433 7.5011 59.5156V62.3694C7.5011 62.4418 7.52983 62.5111 7.58098 62.5623C7.63212 62.6134 7.70149 62.6422 7.77382 62.6422H10.05V66.1876C10.05 66.1876 9.53892 66.3622 8.12455 66.3622C6.45764 66.3622 4.128 65.7535 4.128 60.6305C4.128 55.5071 6.55419 54.8323 8.83201 54.8323C10.8033 54.8323 11.652 55.1793 12.1931 55.3467C12.3622 55.398 12.5204 55.2289 12.5204 55.0783L13.1711 52.3211C13.1722 52.2798 13.1632 52.2389 13.1449 52.2018C13.1267 52.1648 13.0997 52.1327 13.0664 52.1083C12.8466 51.9512 11.508 51.2029 8.12564 51.2029C4.22891 51.2029 0.231812 52.86 0.231812 60.8302C0.231812 68.7993 4.80818 69.9867 8.66455 69.9867C11.8576 69.9867 13.7946 68.622 13.7946 68.622C13.8742 68.5784 13.8829 68.4666 13.8829 68.4147V59.5151C13.8829 59.4427 13.8542 59.3734 13.803 59.3222C13.7519 59.2711 13.6825 59.2424 13.6102 59.2424V59.2429ZM43.4199 51.8836H40.133C40.0971 51.8838 40.0616 51.891 40.0286 51.9048C39.9955 51.9187 39.9655 51.939 39.9402 51.9645C39.915 51.9899 39.8951 52.0202 39.8815 52.0534C39.868 52.0866 39.8611 52.1221 39.8613 52.158L39.8624 58.5093H34.7395V52.158C34.7397 52.1222 34.7329 52.0867 34.7194 52.0535C34.7059 52.0203 34.686 51.9901 34.6608 51.9646C34.6356 51.9392 34.6057 51.9189 34.5727 51.905C34.5396 51.8911 34.5042 51.8838 34.4684 51.8836H31.182C31.1462 51.8838 31.1107 51.891 31.0776 51.9048C31.0446 51.9187 31.0146 51.939 30.9893 51.9645C30.9641 51.9899 30.9441 52.0202 30.9306 52.0534C30.9171 52.0866 30.9102 52.1221 30.9104 52.158V69.3562C30.9104 69.5073 31.0326 69.6306 31.182 69.6306H34.4684C34.5043 69.6303 34.5397 69.6231 34.5728 69.6091C34.6058 69.5952 34.6358 69.5749 34.661 69.5493C34.6862 69.5238 34.7061 69.4935 34.7195 69.4603C34.733 69.4271 34.7398 69.3915 34.7395 69.3556V61.9996H39.8624L39.8537 69.3556C39.8537 69.5073 39.9759 69.6306 40.1264 69.6306H43.4199C43.4557 69.6303 43.4912 69.6231 43.5243 69.6091C43.5573 69.5952 43.5873 69.5749 43.6124 69.5493C43.6376 69.5238 43.6575 69.4935 43.671 69.4603C43.6845 69.4271 43.6913 69.3915 43.691 69.3556V52.1574C43.6913 52.1216 43.6846 52.0861 43.6711 52.0528C43.6577 52.0196 43.6378 51.9894 43.6125 51.964C43.5873 51.9385 43.5573 51.9183 43.5243 51.9045C43.4912 51.8907 43.4557 51.8836 43.4199 51.8836ZM17.6929 52.2747C16.5235 52.2747 15.5744 53.2309 15.5744 54.4145C15.5744 55.5965 16.5235 56.5554 17.6929 56.5554C18.8635 56.5554 19.812 55.5965 19.812 54.4145C19.812 53.2309 18.8629 52.2747 17.6929 52.2747ZM19.3053 57.5154H16.0293C15.8787 57.5154 15.7446 57.6703 15.7446 57.8209V69.1947C15.7446 69.5291 15.9529 69.6284 16.2224 69.6284H19.1733C19.4978 69.6284 19.5769 69.4691 19.5769 69.1893V57.7898C19.5771 57.754 19.5702 57.7185 19.5566 57.6854C19.543 57.6522 19.5231 57.6221 19.4978 57.5966C19.4726 57.5712 19.4426 57.551 19.4096 57.5372C19.3766 57.5233 19.3411 57.5161 19.3053 57.516V57.5154ZM56.1814 57.5411H52.9195C52.8837 57.5414 52.8483 57.5487 52.8153 57.5627C52.7823 57.5766 52.7524 57.597 52.7273 57.6225C52.7022 57.648 52.6824 57.6783 52.6689 57.7115C52.6555 57.7447 52.6487 57.7802 52.649 57.816V66.2487C52.649 66.2487 51.8199 66.8542 50.6444 66.8542C49.469 66.8542 49.157 66.3213 49.157 65.1698V57.816C49.1573 57.7801 49.1505 57.7446 49.137 57.7113C49.1235 57.6781 49.1036 57.6478 49.0785 57.6223C49.0533 57.5968 49.0233 57.5765 48.9903 57.5625C48.9572 57.5486 48.9218 57.5413 48.8859 57.5411H45.5761C45.5036 57.5417 45.4344 57.5709 45.3835 57.6224C45.3326 57.674 45.3041 57.7436 45.3044 57.816V65.7262C45.3044 69.1462 47.2108 69.9829 49.8328 69.9829C51.9841 69.9829 53.7186 68.7938 53.7186 68.7938C53.7186 68.7938 53.8004 69.4211 53.8386 69.4947C53.8768 69.5689 53.9734 69.6436 54.0786 69.6436L56.1841 69.6344C56.22 69.6342 56.2556 69.627 56.2888 69.6131C56.322 69.5992 56.3521 69.5789 56.3774 69.5534C56.4027 69.5279 56.4228 69.4976 56.4364 69.4643C56.45 69.4311 56.457 69.3954 56.4568 69.3595L56.4552 57.8143C56.4549 57.742 56.4261 57.6727 56.375 57.6214C56.324 57.5702 56.2548 57.5411 56.1824 57.5405L56.1814 57.5411ZM65.0952 57.1549C63.2428 57.1549 61.9828 57.9813 61.9828 57.9813V52.1574C61.983 52.1216 61.9762 52.0861 61.9627 52.0529C61.9492 52.0198 61.9293 51.9896 61.9041 51.9641C61.8789 51.9386 61.849 51.9184 61.816 51.9045C61.783 51.8905 61.7475 51.8833 61.7117 51.8831H58.4166C58.3807 51.8831 58.3451 51.8902 58.3119 51.904C58.2787 51.9178 58.2486 51.938 58.2232 51.9635C58.1979 51.989 58.1778 52.0193 58.1642 52.0526C58.1506 52.0858 58.1437 52.1215 58.1439 52.1574V69.3556C58.1437 69.3916 58.1506 69.4272 58.1642 69.4605C58.1778 69.4938 58.1979 69.5241 58.2232 69.5496C58.2486 69.5751 58.2787 69.5953 58.3119 69.6091C58.3451 69.6229 58.3807 69.63 58.4166 69.63H60.7032C60.8068 69.63 60.8843 69.5771 60.9415 69.4838C60.9977 69.3911 61.0801 68.6907 61.0801 68.6907C61.0801 68.6907 62.4274 69.9671 64.979 69.9671C67.9736 69.9671 69.6917 68.4486 69.6917 63.1478C69.6917 57.8471 66.9481 57.1543 65.0946 57.1543L65.0952 57.1549ZM63.8079 66.8444C62.6772 66.81 61.9097 66.2967 61.9097 66.2967V60.8504C61.9097 60.8504 62.6668 60.3867 63.5952 60.3027C64.7696 60.1974 65.9014 60.5525 65.9014 63.354C65.9014 66.3087 65.3914 66.8918 63.8085 66.8438L63.8079 66.8444ZM29.0684 66.78C28.925 66.78 28.5573 66.8384 28.1793 66.8384C26.9684 66.8384 26.5577 66.2755 26.5577 65.5467V60.7107H29.0231C29.0591 60.7107 29.0948 60.7036 29.128 60.6898C29.1612 60.6759 29.1914 60.6556 29.2168 60.6301C29.2421 60.6045 29.2622 60.5742 29.2757 60.5408C29.2893 60.5075 29.2961 60.4718 29.2959 60.4358V57.7871C29.296 57.7512 29.2891 57.7156 29.2754 57.6824C29.2618 57.6492 29.2417 57.619 29.2164 57.5935C29.191 57.5681 29.1609 57.5479 29.1278 57.5341C29.0946 57.5203 29.059 57.5133 29.0231 57.5133H26.5577L26.5539 54.2569C26.5539 54.1331 26.4906 54.0714 26.3477 54.0714H22.9877C22.8579 54.0714 22.7875 54.1293 22.7875 54.2542V57.6196C22.7875 57.6196 21.1037 58.026 20.9902 58.0587C20.9336 58.0752 20.8838 58.1097 20.8484 58.1569C20.813 58.2041 20.7938 58.2615 20.7938 58.3205V60.4353C20.7936 60.4711 20.8005 60.5066 20.814 60.5398C20.8275 60.5729 20.8474 60.6031 20.8726 60.6286C20.8977 60.6541 20.9277 60.6743 20.9607 60.6882C20.9937 60.7021 21.0291 60.7094 21.0649 60.7096H22.7875V65.7976C22.7875 69.5776 25.4384 69.9486 27.2275 69.9486C28.044 69.9486 29.022 69.6867 29.1835 69.6267C29.2817 69.5902 29.3379 69.4893 29.3379 69.3796L29.34 67.0533C29.3389 66.9812 29.3099 66.9124 29.259 66.8613C29.2081 66.8102 29.1394 66.7809 29.0673 66.7795L29.0684 66.78Z" fill="#0C1827"/>
</svg>
