<svg width="30" height="31" viewBox="0 0 30 31" fill="none" xmlns="http://www.w3.org/2000/svg">
<path d="M0.505181 27.6713C-0.228655 28.4968 -0.154293 29.761 0.671272 30.4948C1.49684 31.2287 2.76098 31.1543 3.49482 30.3287L0.505181 27.6713ZM27.9965 1.88256C27.9317 0.779893 26.9852 -0.0614114 25.8826 0.00345123L7.91362 1.06045C6.81095 1.12531 5.96965 2.07178 6.03451 3.17444C6.09938 4.2771 7.04584 5.11841 8.14851 5.05355L24.1209 4.11399L25.0604 20.0864C25.1253 21.189 26.0718 22.0303 27.1744 21.9655C28.2771 21.9006 29.1184 20.9542 29.0535 19.8515L27.9965 1.88256ZM3.49482 30.3287L27.4948 3.32873L24.5052 0.671272L0.505181 27.6713L3.49482 30.3287Z" fill="white"/>
</svg>
