<svg width="40" height="40" viewBox="0 0 61 60" fill="none" xmlns="http://www.w3.org/2000/svg">
<path d="M1.89618 0.467529V58.9092H60.3378V0.467529H1.89618ZM32.809 50.2659C31.9464 52.0187 30.2998 53.1702 28.3918 53.7261C25.4599 54.3994 22.6556 54.0155 20.5695 52.7635C19.1734 51.907 18.0831 50.5885 17.343 49.0695L21.7939 46.3438C21.8327 46.3601 21.9496 46.5715 22.1058 46.8445C22.6734 47.7955 23.1629 48.4687 24.1251 48.9414C25.0704 49.264 27.1458 49.4702 27.9471 47.8067C28.4366 46.9604 28.281 44.2403 28.281 41.2308C28.2805 36.5017 28.3025 31.7923 28.3025 27.1169H33.7768C33.7768 32.2598 33.8049 37.1306 33.7768 42.1491C33.7885 45.2254 34.0555 47.968 32.809 50.2659ZM55.519 48.7193C53.6161 55.2283 43.0069 55.4396 38.7673 51.1393C37.8715 50.127 37.31 49.5983 36.7756 48.4299C39.0286 47.1339 39.0286 47.1339 41.2209 45.8655C42.4117 47.6959 43.5127 48.7025 45.4937 49.1144C48.181 49.4426 50.8848 48.5192 50.2784 45.6649C49.6552 43.3338 44.7755 42.7667 41.4546 40.2738C38.0833 38.0095 37.2931 32.5076 40.0637 29.3639C40.9871 28.2011 42.5618 27.3334 44.214 26.9164L45.9383 26.6933C49.2489 26.6265 51.3182 27.5008 52.8372 29.197C53.2599 29.6252 53.6049 30.0872 54.2501 31.0882C52.4866 32.2121 52.4922 32.2014 49.9661 33.8368C49.4266 32.6745 48.5312 31.9451 47.5849 31.6282C46.116 31.1831 44.2636 31.667 43.8793 33.2192C43.746 33.6975 43.7736 34.1426 43.9854 34.9327C44.5806 36.2899 46.5779 36.88 48.3695 37.7033C53.5268 39.795 55.2684 42.0378 55.6966 44.7074C56.109 47.0058 55.5971 48.4968 55.519 48.7193Z" fill="white"/>
</svg>
