<svg width="40" height="40" viewBox="0 0 60 61" fill="none" xmlns="http://www.w3.org/2000/svg">
<path d="M30.0384 35.4464C32.982 35.4464 35.3683 33.0601 35.3683 30.1165C35.3683 27.1729 32.982 24.7866 30.0384 24.7866C27.0948 24.7866 24.7085 27.1729 24.7085 30.1165C24.7085 33.0601 27.0948 35.4464 30.0384 35.4464Z" fill="white"/>
<path d="M50.2825 21.3269C49.254 20.9529 48.1786 20.5789 47.0566 20.2516C47.3371 19.1295 47.5708 18.0074 47.7579 16.9321C48.7397 10.7607 47.6643 6.41262 44.6721 4.7295C43.7838 4.21521 42.802 3.98145 41.6799 3.98145C38.4072 3.98145 34.2461 6.41262 30.0383 10.4802C25.8305 6.41262 21.6695 3.98145 18.3968 3.98145C17.2747 3.98145 16.2929 4.21521 15.4045 4.7295C12.4123 6.45937 11.337 10.8074 12.3188 16.9321C12.5058 18.0074 12.7396 19.1295 13.0201 20.2516C11.898 20.5789 10.8227 20.9062 9.79415 21.3269C3.94998 23.5711 0.770752 26.6568 0.770752 30.1166C0.770752 33.5763 3.99673 36.662 9.79415 38.9062C10.8227 39.2802 11.898 39.6542 13.0201 39.9815C12.7396 41.1036 12.5058 42.2257 12.3188 43.301C11.337 49.4724 12.4123 53.8205 15.4045 55.5036C16.2929 56.0179 17.2747 56.2517 18.3968 56.2517C21.7162 56.2517 25.8773 53.8205 30.0383 49.753C34.2461 53.8205 38.4072 56.2517 41.6799 56.2517C42.802 56.2517 43.7838 56.0179 44.6721 55.5036C47.6643 53.7738 48.7397 49.4257 47.7579 43.301C47.5708 42.2257 47.3371 41.1036 47.0566 39.9815C48.1786 39.6542 49.254 39.327 50.2825 38.9062C56.1267 36.662 59.3059 33.5763 59.3059 30.1166C59.3059 26.6568 56.1267 23.5711 50.2825 21.3269ZM43.363 7.06717C45.2799 8.18925 45.9345 11.649 45.1397 16.5581C44.9994 17.5399 44.7656 18.5685 44.4851 19.6438C42.0539 19.0828 39.4825 18.7087 36.7708 18.475C35.1812 16.2308 33.5448 14.2204 31.9085 12.397C35.3682 8.98405 38.8747 6.64639 41.7267 6.64639C42.3345 6.64639 42.8955 6.78665 43.363 7.06717ZM38.1267 34.7919C37.2851 36.288 36.3033 37.7841 35.2747 39.2802C33.5448 39.4205 31.815 39.4672 30.0383 39.4672C28.215 39.4672 26.4851 39.4205 24.802 39.2802C23.7734 37.7841 22.8383 36.288 21.9968 34.7919C21.1085 33.249 20.2669 31.6594 19.5188 30.1166C20.2669 28.5737 21.1085 26.9841 21.9968 25.4412C22.8383 23.9451 23.8201 22.449 24.8487 20.9529C26.5786 20.8126 28.3085 20.7659 30.0851 20.7659C31.9085 20.7659 33.6383 20.8126 35.3215 20.9529C36.35 22.449 37.2851 23.9451 38.1267 25.4412C39.015 26.9841 39.8565 28.5737 40.6046 30.1166C39.8098 31.6594 39.015 33.2023 38.1267 34.7919ZM42.0072 33.249C42.7085 34.8854 43.2695 36.475 43.7838 38.0646C42.1942 38.4387 40.5111 38.7192 38.7345 38.9529C39.2955 38.0646 39.9033 37.1296 40.4176 36.1477C40.9786 35.1659 41.4929 34.1841 42.0072 33.249ZM30.0383 45.9192C28.9163 44.7036 27.8409 43.3945 26.8124 42.0387C27.8877 42.0854 28.963 42.1322 30.0383 42.1322C31.1137 42.1322 32.189 42.0854 33.2643 42.0387C32.2357 43.3945 31.1604 44.7036 30.0383 45.9192ZM21.3422 38.9062C19.5656 38.6724 17.8825 38.3919 16.2929 38.0179C16.8071 36.475 17.3682 34.8386 18.0695 33.2023C18.5838 34.1373 19.0981 35.1192 19.6591 36.0542C20.2201 37.0828 20.7812 37.9711 21.3422 38.9062ZM18.0695 26.9841C17.3682 25.3477 16.8071 23.7581 16.2929 22.1685C17.8825 21.7945 19.5656 21.5139 21.3422 21.2802C20.7812 22.1685 20.1734 23.1036 19.6591 24.0854C19.0981 25.0672 18.5838 26.049 18.0695 26.9841ZM30.0383 14.3139C31.1604 15.5295 32.2357 16.8386 33.2643 18.1945C32.189 18.1477 31.1137 18.101 30.0383 18.101C28.963 18.101 27.8877 18.1477 26.8124 18.1945C27.8409 16.8386 28.9163 15.5295 30.0383 14.3139ZM40.4176 24.1321L38.7345 21.3269C40.5111 21.5607 42.1942 21.8412 43.7838 22.2152C43.2695 23.7581 42.7085 25.3945 42.0072 27.0308C41.4929 26.049 40.9786 25.0672 40.4176 24.1321ZM14.937 16.5581C14.1422 11.649 14.7968 8.18925 16.7136 7.06717C17.1812 6.78665 17.7422 6.64639 18.35 6.64639C21.1552 6.64639 24.6617 8.9373 28.1682 12.397C26.5318 14.1737 24.8955 16.2308 23.3059 18.475C20.5942 18.7087 18.0227 19.1295 15.5916 19.6438C15.311 18.5685 15.124 17.5399 14.937 16.5581ZM3.38894 30.1166C3.38894 27.9192 6.05388 25.5815 10.7292 23.8516C11.6643 23.4776 12.6929 23.1503 13.7214 22.8698C14.4695 25.2075 15.4045 27.6854 16.5266 30.1633C15.4045 32.6412 14.4227 35.0724 13.7214 37.4101C7.26947 35.5399 3.38894 32.7347 3.38894 30.1166ZM16.7136 53.166C14.7968 52.0439 14.1422 48.5841 14.937 43.675C15.0773 42.6932 15.311 41.6646 15.5916 40.5893C18.0227 41.1503 20.5942 41.5244 23.3059 41.7581C24.8955 44.0023 26.5318 46.0127 28.1682 47.8361C24.7085 51.2491 21.202 53.5867 18.35 53.5867C17.7422 53.5867 17.1812 53.4465 16.7136 53.166ZM45.1397 43.675C45.9345 48.5841 45.2799 52.0439 43.363 53.166C42.8955 53.4465 42.3345 53.5867 41.7267 53.5867C38.9215 53.5867 35.415 51.2958 31.9085 47.8361C33.5448 46.0594 35.1812 44.0023 36.7708 41.7581C39.4825 41.5244 42.0539 41.1036 44.4851 40.5893C44.7656 41.6646 44.9527 42.6932 45.1397 43.675ZM49.3475 36.3815C48.4124 36.7555 47.3838 37.0828 46.3553 37.3633C45.6072 35.0257 44.6721 32.5477 43.5501 30.0698C44.6721 27.5919 45.654 25.1607 46.3553 22.823C52.8072 24.6932 56.6877 27.4984 56.6877 30.1166C56.6877 32.314 53.976 34.6516 49.3475 36.3815Z" fill="white"/>
</svg>
