<svg width="61" height="61" viewBox="0 0 61 61" fill="none" xmlns="http://www.w3.org/2000/svg">
<path fill-rule="evenodd" clip-rule="evenodd" d="M0.765015 27.2157C0.765015 27.5443 0.861794 27.7613 0.916028 27.9721C1.26948 29.3434 2.02922 30.5202 2.93063 31.5937C4.21448 33.1234 5.78679 34.3549 7.39744 35.513C8.79443 36.5172 10.2199 37.4991 11.6225 38.4958C11.8633 38.667 12.091 38.8638 12.3524 39.0737C12.1275 39.1953 11.9405 39.3023 11.746 39.401C9.89501 40.3398 8.11417 41.3922 6.47266 42.6672C5.48336 43.4358 4.52679 44.2526 3.8512 45.32C2.76419 47.0367 2.37941 48.8657 3.18964 50.8186C3.42621 51.389 3.78715 51.8818 4.29629 52.246C4.46133 52.3638 4.64648 52.4807 4.83957 52.5265C5.33422 52.6429 5.83822 52.7191 6.33895 52.8113L7.75698 52.8103C9.32508 52.6705 10.7525 52.1333 12.0424 51.2431C14.0584 49.8518 15.4166 47.9863 16.0005 45.5921C16.425 43.8519 16.4423 42.1099 15.9421 40.3777C15.8942 40.2172 15.839 40.059 15.7766 39.9036C15.7158 39.7479 15.6443 39.5964 15.5601 39.4024L18.7749 37.5538L18.823 37.5949C18.7646 37.7861 18.7024 37.9769 18.6496 38.17C18.2676 39.5651 18.0137 40.9845 18.1049 42.4325C18.2021 43.9753 18.6327 45.4195 19.536 46.7085C20.2663 47.7511 22.0065 47.7899 22.7826 46.7436C23.0579 46.3719 23.3249 45.9834 23.5255 45.5687C24.0496 44.4864 24.5349 43.3848 25.0356 42.2908L25.123 42.0907C25.087 42.6087 25.045 43.0636 25.0258 43.519C24.9959 44.2301 25.0375 44.9371 25.2806 45.6136C25.4886 46.1924 25.8426 46.6249 26.5055 46.7011C26.959 46.753 27.3204 46.5454 27.6538 46.2821C28.1702 45.874 28.5983 45.3652 28.9119 44.7865C29.8007 43.1544 30.7133 41.532 31.5189 39.8587C32.3904 38.0489 33.1525 36.1862 33.9618 34.3456L34.0955 34.0192C34.2867 34.7705 34.4199 35.5064 34.6654 36.2031C34.9506 37.0114 35.3036 37.8006 35.6879 38.5678C35.8698 38.9302 35.8487 39.1654 35.5967 39.4693C34.542 40.7409 33.5054 42.0281 32.468 43.3138C32.2384 43.5976 32.0098 43.8865 31.8186 44.1965C31.7026 44.3922 31.6263 44.6089 31.5942 44.8342C31.562 45.0416 31.6113 45.2534 31.7319 45.4252C31.8524 45.597 32.0348 45.7154 32.2408 45.7557C32.6564 45.8452 33.0827 45.8756 33.5068 45.8459C34.9548 45.7393 36.2695 45.2311 37.4318 44.3699C38.9377 43.2544 39.4211 41.7321 39.0565 39.9279C38.9578 39.4384 38.7834 38.9624 38.6137 38.4907C38.5375 38.278 38.5324 38.1288 38.6712 37.9306C39.8751 36.2115 40.9037 34.3876 41.8603 32.5217C41.8981 32.4483 41.9369 32.3749 42.0033 32.2964C42.3133 33.9093 42.7799 35.4639 43.6158 36.8744C43.1895 37.2854 42.7673 37.658 42.3853 38.0685C41.5442 38.9727 40.8149 39.9546 40.4343 41.1519C40.2706 41.6681 40.1449 42.1926 40.2178 42.7439C40.331 43.5999 41.0323 44.1563 41.8743 43.9613C43.6762 43.5443 45.2316 42.6952 46.3682 41.1912C47.1331 40.1785 47.2028 39.0489 46.8825 37.8656C46.7946 37.5439 46.6903 37.2274 46.5781 36.8585C47.0228 36.7206 47.4562 36.5551 47.9045 36.4527C50.2324 35.9216 52.535 36.0142 54.7782 36.8548C56.0878 37.3457 57.1458 38.1672 57.7732 39.4594C58.5395 41.0392 58.1159 42.5381 56.6268 43.5368C56.488 43.6298 56.329 43.7032 56.214 43.8196C56.1772 43.8624 56.1496 43.9123 56.1331 43.9662C56.1166 44.0201 56.1115 44.0769 56.1182 44.1329C56.128 44.1904 56.2799 44.2624 56.3674 44.2615C56.8569 44.2577 57.2538 44.0011 57.6348 43.7374C58.5895 43.0767 59.2862 42.188 59.4362 41.0177L59.4657 40.9298L59.4297 40.1677C59.4152 40.1238 59.4404 40.0803 59.4372 40.0471C59.2343 38.343 58.324 37.0212 56.9999 35.9852C55.4664 34.786 53.6557 34.2923 51.7406 34.2142C50.1875 34.1473 48.6363 34.3861 47.1752 34.9169C46.7558 35.0688 46.3402 35.2488 45.9184 35.4185C45.8619 35.3162 45.8011 35.218 45.7511 35.1165C45.3181 34.2301 44.7936 33.3829 44.6776 32.3665C44.5953 31.6446 44.4943 30.9237 44.6659 30.2098C44.831 29.5229 45.046 28.8478 45.2485 28.1704C45.3527 27.8216 45.2793 27.6262 44.9464 27.4691C44.8305 27.4112 44.7067 27.3706 44.579 27.3484C43.7608 27.2297 42.9538 27.2975 42.1614 27.528C41.8808 27.6098 41.677 27.7669 41.6148 28.0773C41.5793 28.2555 41.5068 28.4261 41.4563 28.6019C41.2492 29.3327 41.1024 30.0774 40.7676 30.7736C39.9289 32.5198 38.9714 34.2002 37.9914 35.8683C37.8853 36.0483 37.7735 36.225 37.6398 36.4434C37.2957 35.7234 36.9287 35.0772 36.8174 34.3198C36.6917 33.4633 36.5926 32.6082 36.8058 31.7582C36.9643 31.1243 37.1714 30.502 37.3621 29.8764C37.4524 29.5791 37.4107 29.4229 37.1414 29.2663C37.0054 29.1873 36.8516 29.1171 36.6982 29.0942C35.8593 28.9664 35.0021 29.0366 34.195 29.299C33.9412 29.3813 33.8079 29.5454 33.7303 29.8072C33.5022 30.5796 33.3077 31.3706 32.9874 32.1051C31.6905 35.0786 30.3561 38.0367 29.0232 40.9943C28.745 41.612 28.4191 42.2081 28.1054 42.8093C28.0259 42.9617 27.91 43.0959 27.8109 43.239C27.7314 43.145 27.7005 43.0805 27.701 43.016C27.7034 42.6359 27.658 42.2445 27.7305 41.877C27.953 40.7656 28.199 39.6591 28.4682 38.558C28.688 37.6482 28.9437 36.7468 29.1873 35.8431C29.2691 35.5406 29.2705 35.2577 29.0531 35.0034C28.688 34.5775 27.925 34.4839 27.4724 34.8122L27.2723 34.9253L27.3111 34.6027C27.4065 33.9112 27.4256 33.2221 27.2358 32.5409C26.9992 31.6918 26.3933 31.2033 25.5125 31.2304C25.102 31.243 24.6709 31.3131 24.2908 31.4627C22.6923 32.0892 21.4632 33.1987 20.4168 34.5335C20.3198 34.6574 20.1996 34.7613 20.0629 34.8393C18.7103 35.5892 17.3536 36.3298 15.9973 37.0731L14.4876 37.9002C14.0827 37.514 13.7148 37.1134 13.2972 36.7735C12.0223 35.7337 10.7267 34.7196 9.4429 33.6915C8.30493 32.7803 7.20248 31.8312 6.35905 30.6245C5.73162 29.7268 5.32721 28.7445 5.2884 27.6346C5.23931 26.2203 5.64045 24.928 6.36045 23.7251C7.28149 22.1859 8.53776 20.9507 9.91885 19.8319C11.3799 18.6491 12.9602 17.6448 14.5979 16.728C16.8893 15.4455 19.2461 14.3103 21.7732 13.5609C24.3642 12.7923 26.9932 12.3523 29.7049 12.659C30.7708 12.7796 31.806 13.0237 32.7564 13.545C33.4844 13.9438 34.0814 14.466 34.3592 15.2824C34.6331 16.0856 34.6247 16.8995 34.4349 17.7154C34.0492 19.3677 33.1445 20.7296 32.0061 21.9466C30.1387 23.9415 27.8609 25.2997 25.2965 26.1969C23.822 26.7135 22.2879 27.0407 20.731 27.1708C19.4551 27.2779 18.2059 27.1647 16.9978 26.721C16.1978 26.4269 15.5012 25.9772 14.9411 25.3245C14.841 25.2076 14.7129 25.0809 14.5264 25.1903C14.3436 25.2978 14.3113 25.4718 14.3726 25.648C14.475 25.9407 14.5694 26.2455 14.7288 26.5074C15.1295 27.1642 15.7139 27.6407 16.3573 28.0493C17.5929 28.8352 18.974 29.0994 20.4061 29.1606C22.5792 29.2546 24.6994 28.9301 26.7898 28.3471C29.7741 27.5149 32.3689 26.045 34.4499 23.726C36.1825 21.7951 37.4201 19.6159 37.6852 16.9846C37.8147 15.7003 37.6768 14.4422 37.0755 13.2706C36.4233 12.0012 35.3863 11.0573 34.1464 10.4069C32.3408 9.46016 30.3921 8.90894 28.3808 8.90894H26.3657C23.9299 8.90894 21.5749 9.60696 19.2859 10.4396C17.5532 11.0703 15.8542 11.8147 14.2047 12.6384C10.6127 14.4333 7.26747 16.5975 4.51978 19.5734C3.15084 21.0559 1.99182 22.6918 1.32512 24.6181C1.1239 25.1931 0.950551 25.7776 0.80569 26.3694M13.8214 43.2067C13.6657 45.2914 12.7208 46.9816 11.1765 48.3505C10.3078 49.1201 9.31152 49.668 8.15111 49.8606C7.73033 49.9303 7.29973 49.9471 6.89157 49.7728C6.30949 49.524 6.17905 49.0074 6.16783 48.4571C6.15053 47.58 6.4577 46.7871 6.87895 46.0325C7.42877 45.0488 8.2348 44.2989 9.09552 43.5985C10.4514 42.4947 11.9222 41.5605 13.4286 40.6788L13.5422 40.632C13.7751 41.4923 13.8859 42.3418 13.8214 43.2067ZM25.5836 34.1464C25.4737 34.8122 25.3362 35.4784 25.1417 36.1236C24.4694 38.357 23.6059 40.5212 22.6722 42.6564C22.4997 43.0515 22.2486 43.412 22.0303 43.7865C21.9932 43.844 21.9487 43.8965 21.898 43.9426C21.6278 44.2096 21.3715 44.1955 21.235 43.8463C21.0761 43.4405 20.9783 43.0061 20.8942 42.5765C20.8376 42.288 20.8512 41.9851 20.8334 41.6896C20.8517 39.5885 21.4926 37.6791 22.5801 35.9015C23.0285 35.1684 23.5166 34.4699 24.2623 34.0061C24.4943 33.8619 24.7453 33.7508 25.008 33.676C25.4054 33.5643 25.6495 33.748 25.5836 34.1464ZM33.6083 44.3704L36.4925 41.0028C36.6127 42.2534 34.4868 44.75 33.6083 44.3704ZM42.8201 42.1043C42.6163 42.2212 42.3942 42.3053 42.1852 42.4133C41.994 42.5124 41.9309 42.4124 41.9252 42.2478C41.9224 42.1339 41.9371 42.0202 41.9687 41.9107C42.3582 40.5371 43.0749 39.3645 44.1414 38.4108L44.2162 38.3724C44.7234 39.7914 44.1371 41.3497 42.8201 42.1043Z" fill="white"/>
</svg>
