<svg width="434" height="366" viewBox="0 0 434 366" fill="none" xmlns="http://www.w3.org/2000/svg">
<path d="M0 0.509369C50.4 30.6515 100.8 60.7937 135.36 89.9897C169.76 119.186 188.32 147.436 236.48 166.224C284.48 185.012 362.08 194.338 399.68 226.103C437.28 257.867 435.04 311.933 432.64 366H0V0.509369Z" fill="#18223C"/>
<path d="M0 73.6345C40.32 97.6942 80.64 121.889 108.32 145.273C135.84 168.521 150.72 191.094 189.12 206.233C227.68 221.236 289.76 228.671 319.84 254.082C349.92 279.493 348 322.747 346.08 366H0V73.6345Z" fill="#683A67"/>
<path d="M0 146.76C30.24 164.737 60.48 182.849 81.12 200.421C101.92 217.993 112.96 234.888 141.92 246.107C170.72 257.461 217.28 263.003 239.84 282.062C262.4 301.12 260.96 333.56 259.52 366H0V146.76Z" fill="#C0526A"/>
<path d="M0 219.75C20.16 231.915 40.32 243.944 54.08 255.569C68 267.328 75.36 278.547 94.56 286.116C113.76 293.551 144.8 297.335 159.84 310.041C174.88 322.747 174.08 344.373 173.12 366H0V219.75Z" fill="#F6884D"/>
<path d="M0 292.875C10.08 298.957 20.16 304.905 27.04 310.852C33.92 316.664 37.6 322.341 47.36 325.991C56.96 329.775 72.48 331.668 80 338.02C87.52 344.373 87.04 355.187 86.56 366H0V292.875Z" fill="#FBAE3C"/>
</svg>
