<svg width="433" height="366" viewBox="0 0 433 366" fill="none" xmlns="http://www.w3.org/2000/svg">
<path d="M433 365.491C376.84 360.76 320.68 356.029 267.4 337.646C214.12 319.399 163.72 287.635 140.04 247.49C116.2 207.481 119.24 159.091 100.36 116.379C81.64 73.801 41 36.9005 0.359985 0H433V365.491Z" fill="#18223C"/>
<path d="M433 292.365C388.04 288.581 343.24 284.796 300.52 270.198C257.96 255.465 217.64 230.054 198.6 198.019C179.56 165.985 181.96 127.192 166.92 93.1298C151.88 58.9327 119.4 29.4663 86.92 0H433V292.365Z" fill="#683A67"/>
<path d="M433 219.24C399.24 216.402 365.64 213.563 333.64 202.615C301.64 191.666 271.4 172.608 257.16 148.548C242.92 124.489 244.68 95.4277 233.48 69.8812C222.12 44.1995 197.8 22.1673 173.48 0H433V219.24Z" fill="#C0526A"/>
<path d="M433 146.25C410.6 144.358 388.04 142.331 366.76 135.032C345.48 127.733 325.32 115.027 315.72 99.0772C306.28 82.9923 307.56 63.6635 300.04 46.4973C292.36 29.4663 276.2 14.7332 259.88 0H433V146.25Z" fill="#F6884D"/>
<path d="M433 73.1252C421.8 72.179 410.6 71.2328 399.88 67.5833C389.16 63.9338 379.08 57.581 374.44 49.471C369.64 41.4962 370.28 31.7642 366.44 23.2487C362.76 14.7332 354.6 7.43417 346.44 0H433V73.1252Z" fill="#FBAE3C"/>
</svg>
